<?xml version="1.0" standalone="no"?><!DOCTYPE svg PUBLIC "-//W3C//DTD SVG 1.1//EN" "http://www.w3.org/Graphics/SVG/1.1/DTD/svg11.dtd"><svg t="1486526047517" class="icon" style="" viewBox="0 0 1024 1024" version="1.1" xmlns="http://www.w3.org/2000/svg" p-id="4625" xmlns:xlink="http://www.w3.org/1999/xlink" width="64" height="64"><defs><style type="text/css"></style></defs><path d="M512 1022.72C230.4 1022.72 1.312 793.632 1.312 512 1.312 230.4 230.4 1.312 512 1.312 793.6 1.312 1022.688 230.4 1022.688 512 1022.688 793.632 793.6 1022.72 512 1022.72zM512 65.312C265.696 65.312 65.312 265.696 65.312 512c0 246.304 200.384 446.72 446.688 446.72 246.336 0 446.688-200.416 446.688-446.72C958.688 265.696 758.304 65.312 512 65.312z" p-id="4626" fill="#ffffff"></path><path d="M336 274.496 753.312 512 336 749.504Z" p-id="4627" fill="#ffffff"></path><path d="M336 765.504c-2.784 0-5.568-0.704-8.032-2.144C323.008 760.48 320 755.2 320 749.504L320 274.496c0-5.696 3.04-10.976 7.968-13.824 4.928-2.88 11.008-2.88 15.968-0.064l417.344 237.504c4.992 2.848 8.096 8.16 8.096 13.92s-3.104 11.072-8.096 13.92l-417.312 237.504C341.44 764.8 338.72 765.504 336 765.504zM352 302.016l0 419.968L720.96 512 352 302.016z" p-id="4628" fill="#ffffff"></path></svg>