<?xml version="1.0" standalone="no"?><!DOCTYPE svg PUBLIC "-//W3C//DTD SVG 1.1//EN" "http://www.w3.org/Graphics/SVG/1.1/DTD/svg11.dtd"><svg t="1486524941279" class="icon" style="" viewBox="0 0 1060 1024" version="1.1" xmlns="http://www.w3.org/2000/svg" p-id="3862" xmlns:xlink="http://www.w3.org/1999/xlink" width="33.125" height="32"><defs><style type="text/css"></style></defs><path d="M336.549959 1022.139145C331.959614 1022.139145 327.263338 1021.256386 322.778924 1019.349628 126.700579 936.052524 0.007062 744.211421 0.007062 530.513214 0.007062 238.002317 237.116028 0.010593 528.567614 0.010593 820.0192 0.010593 1057.128166 238.002317 1057.128166 530.513214 1057.128166 741.492524 936.437407 933.192386 749.645683 1018.925903 731.99051 1027.011972 710.945545 1019.314317 702.824166 1001.553214 694.702786 983.827421 702.471062 962.853076 720.196855 954.731697 881.953545 880.474041 986.507476 713.950455 986.507476 530.513214 986.507476 276.949628 781.07189 70.631283 528.567614 70.631283 276.063338 70.631283 70.627752 276.949628 70.627752 530.513214 70.627752 715.821903 180.442924 882.168938 350.356303 954.307972 368.329269 961.935007 376.697821 982.69749 369.070786 1000.635145 363.35051 1014.053076 350.285683 1022.139145 336.549959 1022.139145" p-id="3863" fill="#bfbfbf"></path><path d="M290.706538 654.208883C280.890262 654.208883 271.109297 650.148193 264.153159 642.168055 251.264883 627.514262 252.747917 605.198124 267.40171 592.345159L482.37109 403.929159C510.160331 378.081986 554.474814 378.50571 582.475917 405.729986L787.381848 592.839503C801.788469 605.974952 802.777159 628.3264 789.64171 642.733021 776.506262 657.104331 754.154814 658.163641 739.748193 644.957572L534.065434 457.106538C532.299917 455.446952 530.710952 455.376331 529.686952 456.32971L313.976055 645.451917C307.26709 651.313434 298.969159 654.208883 290.706538 654.208883" p-id="3864" fill="#bfbfbf"></path></svg>